<!-- Generated by IcoMoon.io -->
<svg version="1.1" xmlns="http://www.w3.org/2000/svg" width="448" height="448" viewBox="0 0 448 448">
<title></title>
<g id="icomoon-ignore">
</g>
<path fill="#000" d="M151.25 308.25c41 0 63.25-25 64.25-26 2-2.5 2.5-6.25 0.75-9l-11.25-20.5c-1-2.25-3.5-3.75-6-4.25-2.5-0.25-5 0.75-6.75 2.75-0.25 0-16 16.75-39 16.75-25.25 0-43.5-18.5-43.5-44.25 0-25.5 17.75-43.75 42.5-43.75 20.75 0 34.5 14 34.5 14 1.75 1.75 4 2.75 6.5 2.5s4.75-1.5 6-3.5l13.25-19.5c2-3 1.75-7-0.5-9.75-0.75-1-21-24-60.75-24-49.25 0-86 36.25-86 84.25 0 48.75 36 84.25 86 84.25zM308.75 308.25c41.25 0 63.25-25 64.25-26 2-2.5 2.5-6.25 1-9l-11.25-20.5c-1.25-2.25-3.5-3.75-6.25-4.25-2.5-0.25-5 0.75-6.75 2.75-0.25 0-16 16.75-39 16.75-25.25 0-43.5-18.5-43.5-44.25 0-25.5 17.75-43.75 42.5-43.75 21 0 34.5 14 34.5 14 1.75 1.75 4 2.75 6.5 2.5s4.75-1.5 6-3.5l13.25-19.5c2-3 1.75-7-0.5-9.75-0.75-1-21-24-60.75-24-49 0-86 36.25-86 84.25 0 48.75 36 84.25 86 84.25zM224 40c-101.5 0-184 82.5-184 184s82.5 184 184 184 184-82.5 184-184-82.5-184-184-184zM224 0c123.75 0 224 100.25 224 224s-100.25 224-224 224-224-100.25-224-224 100.25-224 224-224z"></path>
</svg>
